<svg width="120" height="120" viewBox="0 0 120 120" fill="none" xmlns="http://www.w3.org/2000/svg">
  <!-- 简化小狗轮廓 -->
  <path d="M60 30C45 30 30 45 30 60C30 75 45 90 60 90C75 90 90 75 90 60C90 45 75 30 60 30Z" fill="url(#pup-gradient)"/>
  
  <!-- 耳朵 -->
  <path d="M45 35C40 30 35 30 35 35C35 40 40 45 45 45C45 40 45 35 45 35Z" fill="url(#ear-gradient)"/>
  <path d="M75 35C80 30 85 30 85 35C85 40 80 45 75 45C75 40 75 35 75 35Z" fill="url(#ear-gradient)"/>
  
  <!-- 眼睛 -->
  <circle cx="50" cy="55" r="4" fill="white"/>
  <circle cx="50" cy="55" r="2" fill="#1E293B"/>
  <circle cx="70" cy="55" r="4" fill="white"/>
  <circle cx="70" cy="55" r="2" fill="#1E293B"/>
  
  <!-- 鼻子 -->
  <circle cx="60" cy="65" r="3" fill="#1E293B"/>
  
  <!-- 嘴巴 -->
  <path d="M55 70Q60 75 65 70" stroke="#1E293B" stroke-width="1.5" stroke-linecap="round"/>
  
  <!-- 金属光泽 -->
  <path d="M40 50C35 55 35 65 40 70C45 75 55 75 60 70C65 65 65 55 60 50C55 45 45 45 40 50Z" fill="url(#shine-gradient)" opacity="0.2"/>
  
  <defs>
    <linearGradient id="pup-gradient" x1="0%" y1="0%" x2="100%" y2="100%">
      <stop offset="0%" stop-color="#F59E0B"/>
      <stop offset="100%" stop-color="#EA580C"/>
    </linearGradient>
    
    <linearGradient id="ear-gradient" x1="0%" y1="0%" x2="100%" y2="100%">
      <stop offset="0%" stop-color="#D97706"/>
      <stop offset="100%" stop-color="#B45309"/>
    </linearGradient>
    
    <linearGradient id="shine-gradient" x1="0%" y1="0%" x2="100%" y2="100%">
      <stop offset="0%" stop-color="white" stop-opacity="0.5"/>
      <stop offset="100%" stop-color="white" stop-opacity="0"/>
    </linearGradient>
  </defs>
</svg>