<svg width="120" height="120" viewBox="0 0 120 120" fill="none" xmlns="http://www.w3.org/2000/svg">
  <!-- 圆形背景 -->
  <circle cx="60" cy="60" r="58" fill="#F8FAFC" stroke="#CBD5E1" stroke-width="1"/>
  
  <!-- 小狗头部简化轮廓 -->
  <path d="M60 40C45 40 35 50 35 65C35 80 45 90 60 90C75 90 85 80 85 65C85 50 75 40 60 40Z" fill="url(#pup-grad)"/>
  
  <!-- 下垂耳朵 -->
  <path d="M45 45C40 40 35 40 35 45C35 50 40 55 45 60C45 55 45 50 45 45Z" fill="#D97706"/>
  <path d="M75 45C80 40 85 40 85 45C85 50 80 55 75 60C75 55 75 50 75 45Z" fill="#D97706"/>
  
  <!-- 眼睛 -->
  <ellipse cx="50" cy="65" rx="6" ry="8" fill="white"/>
  <ellipse cx="50" cy="65" rx="3" ry="5" fill="#1E293B"/>
  <circle cx="51" cy="63" r="1.5" fill="white"/>
  
  <ellipse cx="70" cy="65" rx="6" ry="8" fill="white"/>
  <ellipse cx="70" cy="65" rx="3" ry="5" fill="#1E293B"/>
  <circle cx="71" cy="63" r="1.5" fill="white"/>
  
  <!-- 鼻子 -->
  <ellipse cx="60" cy="75" rx="5" ry="3" fill="#1E293B"/>
  <circle cx="61" cy="74" r="1" fill="white"/>
  
  <!-- 微笑嘴巴 -->
  <path d="M55 80Q60 85 65 80" stroke="#1E293B" stroke-width="2" stroke-linecap="round"/>
  
  <!-- 脸颊红晕 -->
  <circle cx="48" cy="70" r="3" fill="#FECACA" opacity="0.4"/>
  <circle cx="72" cy="70" r="3" fill="#FECACA" opacity="0.4"/>
  
  <!-- 项圈 -->
  <path d="M50 85C55 88 65 88 70 85L72 90C67 93 53 93 48 90L50 85Z" fill="#3B82F6"/>
  <circle cx="60" cy="87" r="2" fill="white"/>
  
  <!-- 高光 -->
  <ellipse cx="60" cy="45" rx="15" ry="5" fill="white" opacity="0.1"/>
  
  <defs>
    <linearGradient id="pup-grad" x1="0%" y1="0%" x2="100%" y2="100%">
      <stop offset="0%" stop-color="#F59E0B"/>
      <stop offset="100%" stop-color="#EA580C"/>
    </linearGradient>
  </defs>
</svg>